<svg width="93" height="32" viewBox="0 0 93 32" fill="none" xmlns="http://www.w3.org/2000/svg">
<path d="M7.17401 0.818182H9.3267V7.4304C9.3267 8.17282 9.14938 8.82244 8.79474 9.37926C8.44342 9.93608 7.95123 10.3703 7.31818 10.6818C6.68513 10.9901 5.94768 11.1442 5.10582 11.1442C4.26065 11.1442 3.52154 10.9901 2.88849 10.6818C2.25545 10.3703 1.76326 9.93608 1.41193 9.37926C1.06061 8.82244 0.884943 8.17282 0.884943 7.4304V0.818182H3.03764V7.24645C3.03764 7.63423 3.12216 7.97893 3.29119 8.28054C3.46354 8.58215 3.70549 8.81913 4.01705 8.99148C4.3286 9.16383 4.69152 9.25 5.10582 9.25C5.52344 9.25 5.88636 9.16383 6.1946 8.99148C6.50616 8.81913 6.74645 8.58215 6.91548 8.28054C7.08783 7.97893 7.17401 7.63423 7.17401 7.24645V0.818182ZM19.6142 0.818182V11H17.7548L13.3251 4.59162H13.2505V11H11.0978V0.818182H12.987L17.3819 7.22159H17.4714V0.818182H19.6142ZM23.5455 0.818182V11H21.3928V0.818182H23.5455ZM27.1561 0.818182L29.617 8.55398H29.7115L32.1774 0.818182H34.5637L31.0538 11H28.2797L24.7647 0.818182H27.1561ZM35.7892 11V0.818182H42.65V2.59304H37.9419V5.01918H42.2971V6.79403H37.9419V9.22514H42.6699V11H35.7892ZM44.3615 11V0.818182H48.3786C49.1475 0.818182 49.8037 0.955729 50.3473 1.23082C50.8942 1.5026 51.3101 1.88873 51.5952 2.3892C51.8835 2.88636 52.0277 3.47135 52.0277 4.14418C52.0277 4.82031 51.8819 5.40199 51.5902 5.8892C51.2985 6.37311 50.8759 6.74432 50.3224 7.00284C49.7723 7.26136 49.1061 7.39062 48.3239 7.39062H45.6342V5.66051H47.9759C48.3868 5.66051 48.7282 5.60417 49 5.49148C49.2718 5.37879 49.474 5.20975 49.6065 4.98438C49.7424 4.759 49.8104 4.47893 49.8104 4.14418C49.8104 3.80611 49.7424 3.52107 49.6065 3.28906C49.474 3.05705 49.2701 2.88139 48.995 2.76207C48.7232 2.63944 48.3802 2.57812 47.9659 2.57812H46.5142V11H44.3615ZM49.8601 6.36648L52.3906 11H50.0142L47.5384 6.36648H49.8601ZM59.0724 3.74645C59.0327 3.34541 58.862 3.03385 58.5604 2.81179C58.2588 2.58972 57.8494 2.47869 57.3324 2.47869C56.9811 2.47869 56.6844 2.52841 56.4425 2.62784C56.2005 2.72396 56.0149 2.85819 55.8857 3.03054C55.7597 3.20289 55.6967 3.39844 55.6967 3.61719C55.6901 3.79948 55.7282 3.95857 55.8111 4.09446C55.8973 4.23035 56.0149 4.34801 56.1641 4.44744C56.3132 4.54356 56.4856 4.62808 56.6811 4.70099C56.8767 4.7706 57.0855 4.83026 57.3075 4.87997L58.2223 5.09872C58.6664 5.19815 59.0741 5.33073 59.4453 5.49645C59.8165 5.66217 60.138 5.866 60.4098 6.10795C60.6816 6.34991 60.892 6.63494 61.0412 6.96307C61.1937 7.29119 61.2715 7.66738 61.2749 8.09162C61.2715 8.71473 61.1125 9.25497 60.7976 9.71236C60.486 10.1664 60.0353 10.5194 59.4453 10.7713C58.8587 11.0199 58.151 11.1442 57.3224 11.1442C56.5005 11.1442 55.7846 11.0182 55.1747 10.7663C54.5682 10.5144 54.0942 10.1416 53.7528 9.64773C53.4148 9.15057 53.2375 8.53575 53.2209 7.80327H55.304C55.3272 8.14465 55.425 8.42969 55.5973 8.65838C55.773 8.88376 56.0066 9.05445 56.2983 9.17045C56.5933 9.28314 56.9264 9.33949 57.2976 9.33949C57.6622 9.33949 57.9787 9.28646 58.2472 9.1804C58.5189 9.07434 58.7294 8.92685 58.8786 8.73793C59.0277 8.54901 59.1023 8.33191 59.1023 8.08665C59.1023 7.85795 59.0343 7.66572 58.8984 7.50994C58.7659 7.35417 58.5703 7.22159 58.3118 7.11222C58.0566 7.00284 57.7434 6.90341 57.3722 6.81392L56.2635 6.53551C55.4051 6.3267 54.7273 6.00024 54.2301 5.55611C53.733 5.11198 53.486 4.51373 53.4893 3.76136C53.486 3.14489 53.6501 2.6063 53.9815 2.1456C54.3163 1.6849 54.7753 1.32528 55.3587 1.06676C55.942 0.808238 56.6049 0.678977 57.3473 0.678977C58.103 0.678977 58.7625 0.808238 59.326 1.06676C59.8928 1.32528 60.3336 1.6849 60.6484 2.1456C60.9633 2.6063 61.1257 3.13991 61.1357 3.74645H59.0724ZM64.8755 0.818182V11H62.7228V0.818182H64.8755ZM66.2589 2.59304V0.818182H74.6211V2.59304H71.5039V11H69.3761V2.59304H66.2589ZM76.5091 11H74.2022L77.7172 0.818182H80.4913L84.0012 11H81.6944L79.144 3.14489H79.0645L76.5091 11ZM76.3649 6.99787H81.8137V8.67827H76.3649V6.99787ZM90.5178 3.74645C90.478 3.34541 90.3073 3.03385 90.0057 2.81179C89.7041 2.58972 89.2947 2.47869 88.7777 2.47869C88.4264 2.47869 88.1297 2.52841 87.8878 2.62784C87.6458 2.72396 87.4602 2.85819 87.331 3.03054C87.205 3.20289 87.142 3.39844 87.142 3.61719C87.1354 3.79948 87.1735 3.95857 87.2564 4.09446C87.3426 4.23035 87.4602 4.34801 87.6094 4.44744C87.7585 4.54356 87.9309 4.62808 88.1264 4.70099C88.322 4.7706 88.5308 4.83026 88.7528 4.87997L89.6676 5.09872C90.1117 5.19815 90.5194 5.33073 90.8906 5.49645C91.2618 5.66217 91.5833 5.866 91.8551 6.10795C92.1269 6.34991 92.3374 6.63494 92.4865 6.96307C92.639 7.29119 92.7169 7.66738 92.7202 8.09162C92.7169 8.71473 92.5578 9.25497 92.2429 9.71236C91.9313 10.1664 91.4806 10.5194 90.8906 10.7713C90.304 11.0199 89.5964 11.1442 88.7678 11.1442C87.9458 11.1442 87.2299 11.0182 86.62 10.7663C86.0135 10.5144 85.5395 10.1416 85.1982 9.64773C84.8601 9.15057 84.6828 8.53575 84.6662 7.80327H86.7493C86.7725 8.14465 86.8703 8.42969 87.0426 8.65838C87.2183 8.88376 87.4519 9.05445 87.7436 9.17045C88.0386 9.28314 88.3717 9.33949 88.7429 9.33949C89.1075 9.33949 89.424 9.28646 89.6925 9.1804C89.9643 9.07434 90.1747 8.92685 90.3239 8.73793C90.473 8.54901 90.5476 8.33191 90.5476 8.08665C90.5476 7.85795 90.4796 7.66572 90.3438 7.50994C90.2112 7.35417 90.0156 7.22159 89.7571 7.11222C89.5019 7.00284 89.1887 6.90341 88.8175 6.81392L87.7088 6.53551C86.8504 6.3267 86.1726 6.00024 85.6754 5.55611C85.1783 5.11198 84.9313 4.51373 84.9347 3.76136C84.9313 3.14489 85.0954 2.6063 85.4268 2.1456C85.7616 1.6849 86.2206 1.32528 86.804 1.06676C87.3873 0.808238 88.0502 0.678977 88.7926 0.678977C89.5483 0.678977 90.2079 0.808238 90.7713 1.06676C91.3381 1.32528 91.7789 1.6849 92.0938 2.1456C92.4086 2.6063 92.571 3.13991 92.581 3.74645H90.5178ZM7.17401 20.8182H9.3267V27.4304C9.3267 28.1728 9.14938 28.8224 8.79474 29.3793C8.44342 29.9361 7.95123 30.3703 7.31818 30.6818C6.68513 30.9901 5.94768 31.1442 5.10582 31.1442C4.26065 31.1442 3.52154 30.9901 2.88849 30.6818C2.25545 30.3703 1.76326 29.9361 1.41193 29.3793C1.06061 28.8224 0.884943 28.1728 0.884943 27.4304V20.8182H3.03764V27.2464C3.03764 27.6342 3.12216 27.9789 3.29119 28.2805C3.46354 28.5821 3.70549 28.8191 4.01705 28.9915C4.3286 29.1638 4.69152 29.25 5.10582 29.25C5.52344 29.25 5.88636 29.1638 6.1946 28.9915C6.50616 28.8191 6.74645 28.5821 6.91548 28.2805C7.08783 27.9789 7.17401 27.6342 7.17401 27.2464V20.8182ZM14.7072 31H11.0978V20.8182H14.737C15.7612 20.8182 16.6428 21.022 17.3819 21.4297C18.121 21.834 18.6895 22.4157 19.0872 23.1747C19.4882 23.9337 19.6887 24.8419 19.6887 25.8991C19.6887 26.9598 19.4882 27.8712 19.0872 28.6335C18.6895 29.3958 18.1177 29.9808 17.372 30.3885C16.6296 30.7962 15.7413 31 14.7072 31ZM13.2505 29.1555H14.6177C15.2541 29.1555 15.7894 29.0429 16.2235 28.8175C16.661 28.5888 16.9892 28.2358 17.2079 27.7585C17.43 27.2779 17.541 26.6581 17.541 25.8991C17.541 25.1468 17.43 24.532 17.2079 24.0547C16.9892 23.5774 16.6627 23.2261 16.2285 23.0007C15.7943 22.7753 15.2591 22.6626 14.6227 22.6626H13.2505V29.1555ZM22.4641 31H20.1573L23.6722 20.8182H26.4464L29.9563 31H27.6495L25.0991 23.1449H25.0195L22.4641 31ZM22.32 26.9979H27.7688V28.6783H22.32V26.9979ZM29.5462 20.8182H31.9574L34.2791 25.2031H34.3786L36.7003 20.8182H39.1115L35.3977 27.4006V31H33.2599V27.4006L29.5462 20.8182ZM41.0032 31H38.6964L42.2113 20.8182H44.9854L48.4954 31H46.1886L43.6381 23.1449H43.5586L41.0032 31ZM40.859 26.9979H46.3079V28.6783H40.859V26.9979ZM58.2372 20.8182V31H56.3778L51.9482 24.5916H51.8736V31H49.7209V20.8182H51.6101L56.005 27.2216H56.0945V20.8182H58.2372ZM61.7708 31H59.464L62.9789 20.8182H65.753L69.263 31H66.9561L64.4057 23.1449H64.3262L61.7708 31ZM61.6266 26.9979H67.0755V28.6783H61.6266V26.9979Z" fill="#2E2D2D"/>
</svg>
